<?xml version="1.0" encoding="UTF-8"?>
<svg xmlns="http://www.w3.org/2000/svg" xmlns:xlink="http://www.w3.org/1999/xlink" width="200px" height="200px" viewBox="0 0 200 200" version="1.1">
<g id="surface1">
<path style="fill-rule:nonzero;fill:rgb(100%,98.823529%,14.117648%);fill-opacity:1;stroke-width:41.648392;stroke-linecap:butt;stroke-linejoin:miter;stroke:rgb(0%,0%,0%);stroke-opacity:1;stroke-miterlimit:4;" d="M 2167.600945 981.331091 C 2167.600945 1479.375012 1761.447835 1883.348184 1260.283909 1883.348184 C 759.119982 1883.348184 352.604236 1479.375012 352.604236 981.331091 C 352.604236 483.28717 759.119982 79.693315 1260.283909 79.693315 C 1761.447835 79.693315 2167.600945 483.28717 2167.600945 981.331091 Z M 2167.600945 981.331091 " transform="matrix(0.107718,0,0,0.102981,-35.75526,-1.05846)"/>
<path style=" stroke:none;fill-rule:nonzero;fill:rgb(0%,0%,0%);fill-opacity:1;" d="M 77.304688 70.351562 C 77.304688 84.179688 67.96875 95.390625 56.40625 95.390625 C 44.882812 95.390625 35.546875 84.179688 35.546875 70.351562 C 35.546875 56.484375 44.882812 45.273438 56.40625 45.273438 C 67.96875 45.273438 77.304688 56.484375 77.304688 70.351562 Z M 77.304688 70.351562 "/>
<path style=" stroke:none;fill-rule:evenodd;fill:rgb(0%,0%,0%);fill-opacity:1;" d="M 29.335938 145.390625 C 29.335938 145.390625 67.265625 139.101562 102.109375 138.945312 C 136.914062 138.789062 168.632812 144.765625 168.632812 144.765625 C 168.632812 144.765625 135.9375 126.523438 101.09375 126.679688 C 66.25 126.835938 29.335938 145.390625 29.335938 145.390625 Z M 29.335938 145.390625 "/>
<path style=" stroke:none;fill-rule:nonzero;fill:rgb(0%,0%,0%);fill-opacity:1;" d="M 168.007812 70.351562 C 168.007812 84.179688 158.632812 95.390625 147.109375 95.390625 C 135.585938 95.390625 126.25 84.179688 126.25 70.351562 C 126.25 56.484375 135.585938 45.273438 147.109375 45.273438 C 158.632812 45.273438 168.007812 56.484375 168.007812 70.351562 Z M 168.007812 70.351562 "/>
</g>
</svg>
